<svg width="167" height="50" viewBox="0 0 167 50" fill="none" xmlns="http://www.w3.org/2000/svg">
<rect width="167" height="50" rx="25" fill="white"/>
<path fill-rule="evenodd" clip-rule="evenodd" d="M82.2104 17.9998H81.2704V10.7598H82.2104V17.9998ZM54.9004 17.9998H57.3604C58.3137 17.9998 59.1171 17.6881 59.7704 17.0648C60.4237 16.4414 60.7504 15.5764 60.7504 14.4698C60.7504 13.3564 60.4271 12.4848 59.7804 11.8548C59.1337 11.2248 58.3337 10.9098 57.3804 10.9098H54.9004V17.9998ZM57.3304 17.1298H55.8804V11.7798H57.3504C58.0437 11.7798 58.6154 12.0131 59.0654 12.4798C59.5154 12.9464 59.7404 13.6098 59.7404 14.4698C59.7404 15.3231 59.5121 15.9798 59.0554 16.4398C58.5987 16.8998 58.0237 17.1298 57.3304 17.1298ZM62.9904 16.8598C63.2837 17.1598 63.6404 17.3098 64.0604 17.3098C64.4804 17.3098 64.8354 17.1581 65.1254 16.8548C65.4154 16.5514 65.5604 16.1298 65.5604 15.5898C65.5604 15.0564 65.4154 14.6381 65.1254 14.3348C64.8354 14.0314 64.4804 13.8798 64.0604 13.8798C63.6404 13.8798 63.2854 14.0314 62.9954 14.3348C62.7054 14.6381 62.5604 15.0564 62.5604 15.5898C62.5604 16.1298 62.7037 16.5531 62.9904 16.8598ZM64.0604 13.0398C63.3471 13.0398 62.7571 13.2831 62.2904 13.7698C61.8304 14.2498 61.6004 14.8564 61.6004 15.5898C61.6004 16.3298 61.8304 16.9414 62.2904 17.4248C62.7504 17.9081 63.3404 18.1498 64.0604 18.1498C64.7804 18.1498 65.3704 17.9081 65.8304 17.4248C66.2904 16.9414 66.5204 16.3298 66.5204 15.5898C66.5204 14.8564 66.2887 14.2481 65.8254 13.7648C65.3621 13.2814 64.7737 13.0398 64.0604 13.0398ZM70.4304 13.1898H71.4004L72.6504 16.8098L73.7104 13.1898H74.7004L73.1404 17.9998H72.1704L70.8904 14.3398L69.6404 17.9998H68.6504L67.0704 13.1898H68.1004L69.1804 16.8098L70.4304 13.1898ZM76.5904 17.9998V15.2198C76.5904 14.8398 76.6887 14.5248 76.8854 14.2748C77.0821 14.0248 77.3571 13.8998 77.7104 13.8998C78.4571 13.8998 78.8304 14.3031 78.8304 15.1098V17.9998H79.7704V14.9498C79.7704 14.3898 79.6221 13.9331 79.3254 13.5798C79.0287 13.2264 78.6037 13.0498 78.0504 13.0498C77.3837 13.0498 76.8904 13.3264 76.5704 13.8798V13.1898H75.6504V17.9998H76.5904ZM85.8704 17.3098C85.4504 17.3098 85.0937 17.1598 84.8004 16.8598C84.5137 16.5531 84.3704 16.1298 84.3704 15.5898C84.3704 15.0564 84.5154 14.6381 84.8054 14.3348C85.0954 14.0314 85.4504 13.8798 85.8704 13.8798C86.2904 13.8798 86.6454 14.0314 86.9354 14.3348C87.2254 14.6381 87.3704 15.0564 87.3704 15.5898C87.3704 16.1298 87.2254 16.5514 86.9354 16.8548C86.6454 17.1581 86.2904 17.3098 85.8704 17.3098ZM84.1004 13.7698C84.5671 13.2831 85.1571 13.0398 85.8704 13.0398C86.5837 13.0398 87.1721 13.2814 87.6354 13.7648C88.0987 14.2481 88.3304 14.8564 88.3304 15.5898C88.3304 16.3298 88.1004 16.9414 87.6404 17.4248C87.1804 17.9081 86.5904 18.1498 85.8704 18.1498C85.1504 18.1498 84.5604 17.9081 84.1004 17.4248C83.6404 16.9414 83.4104 16.3298 83.4104 15.5898C83.4104 14.8564 83.6404 14.2498 84.1004 13.7698ZM89.6304 15.7148C89.3637 15.9648 89.2304 16.2964 89.2304 16.7098C89.2304 17.1031 89.3804 17.4414 89.6804 17.7248C89.9804 18.0081 90.3671 18.1498 90.8404 18.1498C91.2271 18.1498 91.5487 18.0698 91.8054 17.9098C92.0621 17.7498 92.2571 17.5631 92.3904 17.3498C92.3904 17.5831 92.4071 17.7998 92.4404 17.9998H93.3604C93.3204 17.7598 93.3004 17.4964 93.3004 17.2098V14.7998C93.3004 14.2864 93.1371 13.8648 92.8104 13.5348C92.4837 13.2048 91.9804 13.0398 91.3004 13.0398C90.7804 13.0398 90.3337 13.1848 89.9604 13.4748C89.5871 13.7648 89.3771 14.1398 89.3304 14.5998L90.2304 14.8098C90.2637 14.5164 90.3737 14.2814 90.5604 14.1048C90.7471 13.9281 91.0004 13.8398 91.3204 13.8398C91.6671 13.8398 91.9271 13.9198 92.1004 14.0798C92.2737 14.2398 92.3604 14.4464 92.3604 14.6998C92.3604 14.9064 92.2371 15.0264 91.9904 15.0598L90.6904 15.2498C90.2504 15.3098 89.8971 15.4648 89.6304 15.7148ZM90.9704 17.3598C91.3904 17.3598 91.7271 17.2464 91.9804 17.0198C92.2337 16.7931 92.3604 16.4331 92.3604 15.9398V15.7198L90.8904 15.9398C90.6771 15.9731 90.5071 16.0498 90.3804 16.1698C90.2537 16.2898 90.1904 16.4531 90.1904 16.6598C90.1904 16.8464 90.2621 17.0098 90.4054 17.1498C90.5487 17.2898 90.7371 17.3598 90.9704 17.3598ZM95.6954 16.8198C95.4454 16.4998 95.3204 16.0864 95.3204 15.5798C95.3204 15.0798 95.4504 14.6731 95.7104 14.3598C95.9704 14.0464 96.3137 13.8898 96.7404 13.8898C97.1671 13.8898 97.5037 14.0431 97.7504 14.3498C97.9971 14.6564 98.1204 15.0598 98.1204 15.5598C98.1204 16.0664 97.9937 16.4831 97.7404 16.8098C97.4871 17.1364 97.1504 17.2998 96.7304 17.2998C96.2904 17.2998 95.9454 17.1398 95.6954 16.8198ZM98.1335 17.5291L98.1304 17.2698C98.0037 17.5164 97.8121 17.7214 97.5554 17.8848C97.2987 18.0481 96.9937 18.1298 96.6404 18.1298C95.9537 18.1298 95.4021 17.8881 94.9854 17.4048C94.5687 16.9214 94.3604 16.3131 94.3604 15.5798C94.3604 14.8798 94.5737 14.2848 95.0004 13.7948C95.4271 13.3048 95.9737 13.0598 96.6404 13.0598C97.0337 13.0598 97.3537 13.1381 97.6004 13.2948C97.8471 13.4514 98.0171 13.6431 98.1104 13.8698V10.7598H99.0404V17.1098C99.0404 17.4364 99.0571 17.7331 99.0904 17.9998H98.1804C98.1554 17.8598 98.1398 17.7029 98.1335 17.5291ZM105.2 17.3098C104.78 17.3098 104.424 17.1598 104.13 16.8598C103.844 16.5531 103.7 16.1298 103.7 15.5898C103.7 15.0564 103.845 14.6381 104.135 14.3348C104.425 14.0314 104.78 13.8798 105.2 13.8798C105.62 13.8798 105.975 14.0314 106.265 14.3348C106.555 14.6381 106.7 15.0564 106.7 15.5898C106.7 16.1298 106.555 16.5514 106.265 16.8548C105.975 17.1581 105.62 17.3098 105.2 17.3098ZM103.43 13.7698C103.897 13.2831 104.487 13.0398 105.2 13.0398C105.914 13.0398 106.502 13.2814 106.965 13.7648C107.429 14.2481 107.66 14.8564 107.66 15.5898C107.66 16.3298 107.43 16.9414 106.97 17.4248C106.51 17.9081 105.92 18.1498 105.2 18.1498C104.48 18.1498 103.89 17.9081 103.43 17.4248C102.97 16.9414 102.74 16.3298 102.74 15.5898C102.74 14.8564 102.97 14.2498 103.43 13.7698ZM109.8 17.9998V15.2198C109.8 14.8398 109.899 14.5248 110.095 14.2748C110.292 14.0248 110.567 13.8998 110.92 13.8998C111.667 13.8998 112.04 14.3031 112.04 15.1098V17.9998H112.98V14.9498C112.98 14.3898 112.832 13.9331 112.535 13.5798C112.239 13.2264 111.814 13.0498 111.26 13.0498C110.594 13.0498 110.1 13.3264 109.78 13.8798V13.1898H108.86V17.9998H109.8ZM118.24 11.6698V13.1898H119.28V14.0398H118.24V16.5398C118.24 16.7664 118.292 16.9331 118.395 17.0398C118.499 17.1464 118.67 17.1998 118.91 17.1998C119.05 17.1998 119.174 17.1864 119.28 17.1598V17.9598C119.12 18.0198 118.907 18.0498 118.64 18.0498C118.227 18.0498 117.9 17.9298 117.66 17.6898C117.42 17.4498 117.3 17.1131 117.3 16.6798V14.0398H116.38V13.1898H116.64C116.887 13.1898 117.072 13.1214 117.195 12.9848C117.319 12.8481 117.38 12.6698 117.38 12.4498V11.6698H118.24ZM121.47 17.9998V15.1698C121.484 14.7964 121.587 14.4914 121.78 14.2548C121.974 14.0181 122.244 13.8998 122.59 13.8998C123.337 13.8998 123.71 14.3031 123.71 15.1098V17.9998H124.65V14.9498C124.65 14.3898 124.502 13.9331 124.205 13.5798C123.909 13.2264 123.484 13.0498 122.93 13.0498C122.277 13.0498 121.79 13.2831 121.47 13.7498V10.7598H120.53V17.9998H121.47ZM126.76 15.0998H129.39C129.377 14.7398 129.257 14.4448 129.03 14.2148C128.804 13.9848 128.484 13.8698 128.07 13.8698C127.697 13.8698 127.39 13.9914 127.15 14.2348C126.91 14.4781 126.78 14.7664 126.76 15.0998ZM130.34 16.6298L129.53 16.3498C129.317 16.9964 128.867 17.3198 128.18 17.3198C127.774 17.3198 127.432 17.1831 127.155 16.9098C126.879 16.6364 126.737 16.2864 126.73 15.8598H130.35C130.364 15.7798 130.37 15.6798 130.37 15.5598C130.37 14.7931 130.167 14.1814 129.76 13.7248C129.354 13.2681 128.787 13.0398 128.06 13.0398C127.434 13.0398 126.894 13.2798 126.44 13.7598C125.987 14.2398 125.76 14.8464 125.76 15.5798C125.76 16.3664 125.995 16.9914 126.465 17.4548C126.935 17.9181 127.507 18.1498 128.18 18.1498C128.72 18.1498 129.18 18.0081 129.56 17.7248C129.94 17.4414 130.2 17.0764 130.34 16.6298Z" fill="black"/>
<path fill-rule="evenodd" clip-rule="evenodd" d="M63.1202 37H65.2162L60.8002 25.656H58.5762L54.1602 37H56.1922L57.2482 34.152H62.0482L63.1202 37ZM59.6482 27.736L61.3762 32.376H57.9202L59.6482 27.736ZM68.4162 40.04V36.12C68.8162 36.712 69.6642 37.192 70.7842 37.192C73.0242 37.192 74.4482 35.432 74.4482 33.096C74.4482 30.792 73.1522 29.032 70.8482 29.032C69.6482 29.032 68.7522 29.592 68.3682 30.264V29.208H66.5762V40.04H68.4162ZM72.5922 33.096C72.5922 34.584 71.7282 35.544 70.4962 35.544C69.2802 35.544 68.4002 34.584 68.4002 33.096C68.4002 31.64 69.2802 30.68 70.4962 30.68C71.7442 30.68 72.5922 31.64 72.5922 33.096ZM78.0802 40.04V36.12C78.4802 36.712 79.3282 37.192 80.4482 37.192C82.6882 37.192 84.1122 35.432 84.1122 33.096C84.1122 30.792 82.8162 29.032 80.5122 29.032C79.3122 29.032 78.4162 29.592 78.0322 30.264V29.208H76.2402V40.04H78.0802ZM82.2562 33.096C82.2562 34.584 81.3922 35.544 80.1602 35.544C78.9442 35.544 78.0642 34.584 78.0642 33.096C78.0642 31.64 78.9442 30.68 80.1602 30.68C81.4082 30.68 82.2562 31.64 82.2562 33.096ZM97.4882 28.312C97.2322 27.048 96.1922 25.416 93.5202 25.416C91.4082 25.416 89.6642 26.984 89.6642 28.888C89.6642 30.584 90.8162 31.72 92.5442 32.072L94.1442 32.408C95.1202 32.616 95.6642 33.208 95.6642 33.944C95.6642 34.824 94.9602 35.512 93.6002 35.512C91.9682 35.512 91.1202 34.424 91.0082 33.24L89.2162 33.752C89.3922 35.384 90.7202 37.24 93.6002 37.24C96.1922 37.24 97.6162 35.56 97.6162 33.8C97.6162 32.2 96.5442 30.936 94.5442 30.536L92.9122 30.2C92.0322 30.008 91.5842 29.464 91.5842 28.744C91.5842 27.88 92.3842 27.112 93.5362 27.112C95.0562 27.112 95.6482 28.152 95.7602 28.856L97.4882 28.312ZM101.808 26.824H100.128V27.992C100.128 28.68 99.7602 29.208 98.9282 29.208H98.5282V30.856H99.9682V34.776C99.9682 36.232 100.864 37.096 102.304 37.096C102.976 37.096 103.328 36.968 103.44 36.92V35.384L103.235 35.4159C103.108 35.4323 102.946 35.448 102.8 35.448C102.112 35.448 101.808 35.16 101.808 34.472V30.856H103.424V29.208H101.808V26.824ZM108.72 35.576C107.584 35.576 106.544 34.712 106.544 33.096C106.544 31.48 107.584 30.648 108.72 30.648C109.872 30.648 110.896 31.48 110.896 33.096C110.896 34.728 109.872 35.576 108.72 35.576ZM108.72 28.968C106.4 28.968 104.688 30.712 104.688 33.096C104.688 35.496 106.4 37.24 108.72 37.24C111.056 37.24 112.768 35.496 112.768 33.096C112.768 30.712 111.056 28.968 108.72 28.968ZM119.12 29.16C119.04 29.144 118.848 29.112 118.624 29.112C117.6 29.112 116.736 29.608 116.368 30.456V29.208H114.56V37H116.416V33.288C116.416 31.832 117.072 31 118.512 31C118.704 31 118.912 31.016 119.12 31.048V29.16ZM121.936 32.248C122 31.416 122.672 30.52 123.84 30.52C125.12 30.52 125.728 31.336 125.76 32.248H121.936ZM125.968 34.28L127.536 34.776C127.12 36.136 125.888 37.24 124.016 37.24C121.904 37.24 120.032 35.704 120.032 33.064C120.032 30.6 121.856 28.968 123.824 28.968C126.224 28.968 127.632 30.552 127.632 33.016C127.632 33.32 127.6 33.576 127.584 33.608H121.888C121.936 34.792 122.864 35.64 124.016 35.64C125.136 35.64 125.712 35.048 125.968 34.28Z" fill="black"/>
<path fill-rule="evenodd" clip-rule="evenodd" d="M31.3938 14.5376C32.263 13.6005 32.8511 12.2986 32.6906 11C31.4371 11.0451 29.9185 11.7405 29.0204 12.6773C28.2133 13.5075 27.5079 14.8334 27.6963 16.1059C29.0955 16.2022 30.5228 15.4737 31.3938 14.5376ZM34.0616 23.502C34.0346 20.5912 36.3495 19.1944 36.4534 19.1258C35.1524 17.1502 33.125 16.8795 32.4037 16.8493C30.6791 16.6669 29.0385 17.902 28.1625 17.902C27.2897 17.902 25.9395 16.8737 24.5086 16.9009C22.628 16.9318 20.8947 18.035 19.9278 19.7834C17.974 23.3 19.4266 28.5109 21.3313 31.3629C22.2618 32.7597 23.3706 34.3261 24.8264 34.269C26.2303 34.2131 26.7604 33.3279 28.4561 33.3279C30.1509 33.3279 30.6278 34.269 32.1111 34.2407C33.6204 34.2131 34.5769 32.8174 35.5009 31.4171C36.5685 29.7983 37.008 28.23 37.0347 28.1505C37.0008 28.133 34.0923 26.979 34.0616 23.502Z" fill="black"/>
</svg>
