<svg width="18" height="20" viewBox="0 0 18 20" fill="none" xmlns="http://www.w3.org/2000/svg">
<path d="M16.0246 13.9165H17.7698V15.6617H0.317383V13.9165H2.06263V7.80813C2.06263 5.95666 2.79812 4.18102 4.10731 2.87183C5.4165 1.56264 7.19214 0.827148 9.04361 0.827148C10.8951 0.827148 12.6707 1.56264 13.9799 2.87183C15.2891 4.18102 16.0246 5.95666 16.0246 7.80813V13.9165ZM14.2793 13.9165V7.80813C14.2793 6.41952 13.7277 5.08779 12.7458 4.1059C11.7639 3.12401 10.4322 2.57239 9.04361 2.57239C7.655 2.57239 6.32327 3.12401 5.34138 4.1059C4.35949 5.08779 3.80787 6.41952 3.80787 7.80813V13.9165H14.2793ZM6.42574 17.407H11.6615V19.1522H6.42574V17.407Z" fill="black"/>
</svg>
