<svg width="17" height="19" viewBox="0 0 17 19" fill="none" xmlns="http://www.w3.org/2000/svg">
<path d="M3.39793 0.827148H12.9968C13.1322 0.827148 13.2659 0.858689 13.387 0.919274C13.5082 0.979858 13.6136 1.06782 13.6949 1.1762L16.051 4.31764V17.407C16.051 17.6384 15.959 17.8604 15.7954 18.024C15.6317 18.1877 15.4098 18.2796 15.1783 18.2796H1.21637C0.984938 18.2796 0.762984 18.1877 0.599335 18.024C0.435687 17.8604 0.34375 17.6384 0.34375 17.407V4.31764L2.69983 1.1762C2.78111 1.06782 2.88651 0.979858 3.00768 0.919274C3.12885 0.858689 3.26246 0.827148 3.39793 0.827148ZM14.3057 6.06288H2.08899V16.5344H14.3057V6.06288ZM13.8694 4.31764L12.5605 2.57239H3.83424L2.52531 4.31764H13.8694ZM5.57948 7.80813V9.55337C5.57948 10.2477 5.85529 10.9135 6.34624 11.4045C6.83718 11.8954 7.50305 12.1712 8.19735 12.1712C8.89165 12.1712 9.55752 11.8954 10.0485 11.4045C10.5394 10.9135 10.8152 10.2477 10.8152 9.55337V7.80813H12.5605V9.55337C12.5605 10.7105 12.1008 11.8203 11.2825 12.6386C10.4643 13.4568 9.35452 13.9165 8.19735 13.9165C7.04018 13.9165 5.93041 13.4568 5.11216 12.6386C4.29392 11.8203 3.83424 10.7105 3.83424 9.55337V7.80813H5.57948Z" fill="black"/>
</svg>
