<svg width="60" height="60" viewBox="0 0 60 60" fill="none" xmlns="http://www.w3.org/2000/svg">
<rect width="60" height="60" rx="30" fill="black"/>
<path d="M19.5748 24.7613C20.5455 22.8285 22.0346 21.2036 23.8757 20.0684C25.7167 18.9332 27.8372 18.3323 30.0002 18.333C33.1443 18.333 35.7857 19.488 37.8052 21.3722L34.4603 24.7182C33.2505 23.562 31.7128 22.9728 30.0002 22.9728C26.961 22.9728 24.3885 25.0262 23.4727 27.783C23.2393 28.483 23.1063 29.2297 23.1063 29.9997C23.1063 30.7697 23.2393 31.5163 23.4727 32.2163C24.3897 34.9743 26.961 37.0265 30.0002 37.0265C31.5693 37.0265 32.9052 36.6123 33.9505 35.9123C34.5565 35.5133 35.0753 34.9956 35.4756 34.3904C35.8758 33.7852 36.1492 33.1052 36.2792 32.3913H30.0002V27.8787H40.9878C41.1255 28.6417 41.2002 29.4373 41.2002 30.2645C41.2002 33.8182 39.9285 36.8095 37.7212 38.8395C35.7915 40.6222 33.1502 41.6663 30.0002 41.6663C28.4679 41.667 26.9505 41.3656 25.5348 40.7795C24.1191 40.1934 22.8327 39.3341 21.7492 38.2506C20.6657 37.1672 19.8064 35.8808 19.2203 34.465C18.6342 33.0493 18.3329 31.5319 18.3335 29.9997C18.3335 28.1167 18.7838 26.3363 19.5748 24.7613Z" fill="white"/>
</svg>
