<svg width="111" height="24" viewBox="0 0 111 24" fill="none" xmlns="http://www.w3.org/2000/svg">
<path d="M0.47255 23.6113V0.76449H6.67511V18.6136H15.912V23.6113H0.47255ZM46.7307 12.1879C46.7307 14.7314 46.2361 16.877 45.247 18.6247C44.2579 20.365 42.9229 21.6851 41.2421 22.585C39.5613 23.4775 37.6872 23.9237 35.6196 23.9237C33.5373 23.9237 31.6557 23.4737 29.9749 22.5738C28.3015 21.6665 26.9703 20.3427 25.9811 18.6024C24.9994 16.8547 24.5086 14.7165 24.5086 12.1879C24.5086 9.64441 24.9994 7.50252 25.9811 5.76224C26.9703 4.01451 28.3015 2.69442 29.9749 1.80197C31.6557 0.902076 33.5373 0.45213 35.6196 0.45213C37.6872 0.45213 39.5613 0.902076 41.2421 1.80197C42.9229 2.69442 44.2579 4.01451 45.247 5.76224C46.2361 7.50252 46.7307 9.64441 46.7307 12.1879ZM40.3497 12.1879C40.3497 10.8195 40.1674 9.66672 39.803 8.72965C39.446 7.78513 38.9143 7.07117 38.2078 6.58776C37.5087 6.09691 36.646 5.85148 35.6196 5.85148C34.5933 5.85148 33.7269 6.09691 33.0204 6.58776C32.3213 7.07117 31.7895 7.78513 31.4251 8.72965C31.0681 9.66672 30.8896 10.8195 30.8896 12.1879C30.8896 13.5563 31.0681 14.7128 31.4251 15.6573C31.7895 16.5944 32.3213 17.3084 33.0204 17.7992C33.7269 18.2826 34.5933 18.5243 35.6196 18.5243C36.646 18.5243 37.5087 18.2826 38.2078 17.7992C38.9143 17.3084 39.446 16.5944 39.803 15.6573C40.1674 14.7128 40.3497 13.5563 40.3497 12.1879ZM71.5058 8.30573C71.4091 7.91156 71.2567 7.56574 71.0484 7.26825C70.8402 6.96333 70.5799 6.70675 70.2675 6.49851C69.9626 6.28283 69.6056 6.12294 69.1966 6.01882C68.795 5.90726 68.3525 5.85148 67.869 5.85148C66.8279 5.85148 65.9391 6.10062 65.2028 6.59891C64.474 7.0972 63.9162 7.81488 63.5295 8.75196C63.1502 9.68904 62.9605 10.8195 62.9605 12.1433C62.9605 13.482 63.1428 14.6273 63.5072 15.5792C63.8716 16.5312 64.4145 17.26 65.1359 17.7658C65.8573 18.2715 66.7535 18.5243 67.8244 18.5243C68.7689 18.5243 69.5536 18.3867 70.1783 18.1116C70.8104 17.8364 71.2827 17.446 71.595 16.9402C71.9074 16.4345 72.0636 15.8395 72.0636 15.1553L73.1345 15.2669H67.9137V10.8492H78.043V14.0174C78.043 16.0998 77.6005 17.881 76.7155 19.361C75.8379 20.8336 74.6257 21.964 73.0788 22.7523C71.5393 23.5332 69.773 23.9237 67.7798 23.9237C65.5561 23.9237 63.6039 23.4514 61.9231 22.5069C60.2423 21.5624 58.9296 20.2163 57.9851 18.4686C57.048 16.7208 56.5795 14.6422 56.5795 12.2325C56.5795 10.3435 56.8658 8.67015 57.4385 7.21247C58.0186 5.7548 58.8218 4.52396 59.8481 3.51994C60.8744 2.50849 62.0607 1.74619 63.4068 1.23303C64.7529 0.712429 66.1957 0.45213 67.7352 0.45213C69.0887 0.45213 70.3456 0.645496 71.5058 1.03223C72.6734 1.41152 73.7035 1.95443 74.5959 2.66096C75.4958 3.36005 76.2209 4.18928 76.7713 5.14867C77.3216 6.10806 77.6563 7.16041 77.7753 8.30573H71.5058ZM110.136 12.1879C110.136 14.7314 109.642 16.877 108.653 18.6247C107.663 20.365 106.328 21.6851 104.648 22.585C102.967 23.4775 101.093 23.9237 99.0252 23.9237C96.9428 23.9237 95.0612 23.4737 93.3804 22.5738C91.7071 21.6665 90.3758 20.3427 89.3867 18.6024C88.405 16.8547 87.9141 14.7165 87.9141 12.1879C87.9141 9.64441 88.405 7.50252 89.3867 5.76224C90.3758 4.01451 91.7071 2.69442 93.3804 1.80197C95.0612 0.902076 96.9428 0.45213 99.0252 0.45213C101.093 0.45213 102.967 0.902076 104.648 1.80197C106.328 2.69442 107.663 4.01451 108.653 5.76224C109.642 7.50252 110.136 9.64441 110.136 12.1879ZM103.755 12.1879C103.755 10.8195 103.573 9.66672 103.209 8.72965C102.852 7.78513 102.32 7.07117 101.613 6.58776C100.914 6.09691 100.052 5.85148 99.0252 5.85148C97.9989 5.85148 97.1324 6.09691 96.4259 6.58776C95.7268 7.07117 95.1951 7.78513 94.8307 8.72965C94.4737 9.66672 94.2952 10.8195 94.2952 12.1879C94.2952 13.5563 94.4737 14.7128 94.8307 15.6573C95.1951 16.5944 95.7268 17.3084 96.4259 17.7992C97.1324 18.2826 97.9989 18.5243 99.0252 18.5243C100.052 18.5243 100.914 18.2826 101.613 17.7992C102.32 17.3084 102.852 16.5944 103.209 15.6573C103.573 14.7128 103.755 13.5563 103.755 12.1879Z" fill="black"/>
</svg>
