<svg width="22" height="22" viewBox="0 0 22 22" fill="none" xmlns="http://www.w3.org/2000/svg">
<path d="M16.6848 15.255L21.0451 19.6143L19.6046 21.0549L15.2452 16.6945C13.6232 17.9948 11.6057 18.702 9.52679 18.6991C4.46907 18.6991 0.364258 14.5943 0.364258 9.53656C0.364258 4.47884 4.46907 0.374023 9.52679 0.374023C14.5845 0.374023 18.6893 4.47884 18.6893 9.53656C18.6923 11.6154 17.9851 13.633 16.6848 15.255ZM14.6425 14.4996C15.9346 13.1709 16.6561 11.3899 16.6532 9.53656C16.6532 5.5987 13.4636 2.41014 9.52679 2.41014C5.58894 2.41014 2.40038 5.5987 2.40038 9.53656C2.40038 13.4734 5.58894 16.663 9.52679 16.663C11.3801 16.6659 13.1611 15.9443 14.4898 14.6523L14.6425 14.4996Z" fill="white"/>
</svg>
