<svg width="15" height="20" viewBox="0 0 15 20" fill="none" xmlns="http://www.w3.org/2000/svg">
<path d="M14.7212 19.2792H0.759277V17.5339C0.759277 16.3768 1.21896 15.267 2.0372 14.4487C2.85545 13.6305 3.96522 13.1708 5.12239 13.1708H10.3581C11.5153 13.1708 12.6251 13.6305 13.4433 14.4487C14.2616 15.267 14.7212 16.3768 14.7212 17.5339V19.2792ZM7.74026 11.4256C7.05269 11.4256 6.37186 11.2901 5.73663 11.027C5.1014 10.7639 4.52422 10.3782 4.03803 9.89206C3.55185 9.40588 3.16619 8.82869 2.90307 8.19346C2.63995 7.55824 2.50452 6.8774 2.50452 6.18984C2.50452 5.50227 2.63995 4.82143 2.90307 4.18621C3.16619 3.55098 3.55185 2.9738 4.03803 2.48761C4.52422 2.00143 5.1014 1.61577 5.73663 1.35265C6.37186 1.08953 7.05269 0.954102 7.74026 0.954102C9.12886 0.954102 10.4606 1.50572 11.4425 2.48761C12.4244 3.4695 12.976 4.80123 12.976 6.18984C12.976 7.57844 12.4244 8.91017 11.4425 9.89206C10.4606 10.8739 9.12886 11.4256 7.74026 11.4256Z" fill="black"/>
</svg>
